<?xml version="1.0" encoding="iso-8859-1"?>
<!-- Generator: Adobe Illustrator 18.0.0, SVG Export Plug-In . SVG Version: 6.00 Build 0)  -->
<!DOCTYPE svg PUBLIC "-//W3C//DTD SVG 1.1//EN" "http://www.w3.org/Graphics/SVG/1.1/DTD/svg11.dtd">
<svg version="1.1" id="Capa_1" xmlns="http://www.w3.org/2000/svg" xmlns:xlink="http://www.w3.org/1999/xlink" x="0px" y="0px"
	 viewBox="0 0 192.218 192.218" style="enable-background:new 0 0 192.218 192.218;" xml:space="preserve">
<g>
	<g>
		<polygon style="fill-rule:evenodd;clip-rule:evenodd;fill:#C79369;" points="139.868,59.515 150.065,60.765 153.003,44.613 
			142.807,43.364 		"/>
		<path style="fill-rule:evenodd;clip-rule:evenodd;fill:#D9ECED;" d="M42.867,16.54c24.19-6.091,51.487,18.689,62.622,55.964
			C95.45,85.526,81.076,95.42,63.821,99.765c-17.254,4.345-34.6,2.437-49.607-4.279C6.369,57.383,18.676,22.631,42.867,16.54z"/>
		<path style="fill-rule:evenodd;clip-rule:evenodd;fill:#E7B791;" d="M75.618,72.693c4.62-1.206,14.358-5.043,17.962-8.06
			l2.035,3.481C92.585,72,82.841,77.31,78.458,79.754L75.618,72.693z"/>
		<path style="fill-rule:evenodd;clip-rule:evenodd;fill:#E7B791;" d="M61.695,68.729c5.153,1.444,11.526,2.63,18.295,3.255
			l-0.798,7.444c-6.294,0.353-11.99,0.216-15.778-0.386C52.816,77.36,50.42,65.568,61.695,68.729z"/>
		<path style="fill-rule:evenodd;clip-rule:evenodd;fill:#E7B791;" d="M91.03,63.271c0.658-1.295,1.477-1.362,2.172-0.606
			c0.722-2.026,2.817-2.923,3.824-2.411c1.959,0.995,2.451,3.96,1.099,6.621c-1.353,2.662-4.036,4.013-5.996,3.018
			C90.17,68.897,89.678,65.933,91.03,63.271z"/>
		
			<rect x="50.657" y="59.49" transform="matrix(-0.968 0.2509 -0.2509 -0.968 128.1275 119.0598)" style="fill-rule:evenodd;clip-rule:evenodd;fill:#C79369;" width="11.633" height="16.416"/>
		<path style="fill-rule:evenodd;clip-rule:evenodd;fill:#E7B791;" d="M62.296,105.684l-9.273-19.877l-1.808-15.216
			c3.843-0.349,7.594-1.342,11.261-2.918c2.957,0.66,7.304,6.845,8.068,12.755l3.331,22.255L62.296,105.684z"/>
		<path style="fill-rule:evenodd;clip-rule:evenodd;fill:#F5F0F0;" d="M70.589,101.248c24.945,0,45.366,30.695,47.062,69.56
			c-12.914,10.177-29.269,16.262-47.062,16.262c-17.793,0-29.428-8.23-42.341-18.407C29.943,129.798,45.644,101.248,70.589,101.248z
			"/>
		<path style="fill-rule:evenodd;clip-rule:evenodd;fill:#F5F0F0;" d="M53.023,85.807c1.392-0.335,9.265-11.864,15.74-11.179
			c0.869,1.82,1.524,3.825,1.78,5.8l3.298,22.029l0.033,0.226l-11.579,3.001L53.023,85.807z"/>
		<path style="fill-rule:evenodd;clip-rule:evenodd;fill:#E7B791;" d="M62.975,76.206c9.295,8.038,24.634,17.502,39.36,21.626
			l-1.217,4.013c-14.233-2.01-33.279-9.635-41.144-14.983C50.58,80.473,53.599,68.097,62.975,76.206z"/>
		<path style="fill-rule:evenodd;clip-rule:evenodd;fill:#F5F0F0;" d="M74.49,192.218c4.62,0,8.388-1.893,8.388-4.213
			c0-2.319-3.768-4.212-8.388-4.212c-4.619,0-8.387,1.893-8.387,4.212C66.104,190.325,69.871,192.218,74.49,192.218z"/>
		<g>
			<path style="fill-rule:evenodd;clip-rule:evenodd;fill:#323232;" d="M127.086,186.817l-2.566-55.118l-0.018-12.87l-0.013-4.289
				h14.801c-1.082,24.093-2.165,48.184-3.247,72.277C133.057,186.817,130.07,186.817,127.086,186.817z"/>
			<polygon style="fill-rule:evenodd;clip-rule:evenodd;fill:#323232;" points="124.488,114.54 124.694,114.54 124.501,118.831 
				124.501,118.829 			"/>
		</g>
		<path style="fill-rule:evenodd;clip-rule:evenodd;fill:#1A1A1A;" d="M126.845,192.218c5.065,0,9.197-2.075,9.197-4.619
			c0-2.544-4.132-4.619-9.197-4.619c-5.065,0-9.196,2.075-9.196,4.619C117.648,190.143,121.779,192.218,126.845,192.218z"/>
		<path style="fill-rule:evenodd;clip-rule:evenodd;fill:#1A1A1A;" d="M123.789,69.206c-5.521-0.494-16.764-4.198-21.469-6.96
			l-1.662,4.376c4.216,3.867,15.746,9.256,21.233,11.213L123.789,69.206z"/>
		<path style="fill-rule:evenodd;clip-rule:evenodd;fill:#1A1A1A;" d="M140.004,63.063c-5.759,2.332-12.958,4.524-20.687,6.12
			l1.882,8.484c7.307-0.406,13.86-1.3,18.152-2.482C151.361,71.875,152.603,57.961,140.004,63.063z"/>
		<path style="fill-rule:evenodd;clip-rule:evenodd;fill:#E7B791;" d="M102.724,60.413c-1.331-1.033-2.224-0.699-2.58,0.44
			c-1.762-1.771-4.405-1.674-5.21-0.639c-1.563,2.016-0.612,5.371,2.126,7.497c2.737,2.125,6.225,2.215,7.789,0.199
			C106.413,65.895,105.462,62.539,102.724,60.413z"/>
		<path style="fill-rule:evenodd;clip-rule:evenodd;fill:#E7B791;" d="M106.323,96.788c1.358,0.72,1.415,1.587,0.602,2.31
			c2.132,0.802,3.042,3.036,2.481,4.093c-1.09,2.055-4.236,2.522-7.028,1.041c-2.793-1.48-4.174-4.347-3.084-6.402
			C100.384,95.773,103.53,95.308,106.323,96.788z"/>
		<polygon style="fill-rule:evenodd;clip-rule:evenodd;fill:#F5F0F0;" points="140.652,53.995 151.24,55.51 150.439,61.107 
			138.877,63.977 		"/>
		<polygon style="fill-rule:evenodd;clip-rule:evenodd;fill:#1A1A1A;" points="122.327,112.566 146.868,116.076 146.48,121.085 
			121.635,117.531 		"/>
		<polygon style="fill-rule:evenodd;clip-rule:evenodd;fill:#323232;" points="146.611,119.419 150.971,57.662 142.723,58.286 
			126.697,87.02 121.859,115.763 		"/>
		<path style="fill-rule:evenodd;clip-rule:evenodd;fill:#F5F0F0;" d="M141.539,55.326c-3.98,18.962-4.857,28.249-14.379,33.752
			l1.149-8.203l10.411-19.682l1.933-7.198L141.539,55.326z"/>
		<path style="fill-rule:evenodd;clip-rule:evenodd;fill:#323232;" d="M141.619,52.967l-1.692,12.369l-0.836,1.848l-8.241,17.327
			l-5.694,9.088l2.931-13.361l10.634-19.044l1.501-6.259c0.229-0.952,0.123-4.76,0.123-4.76L141.619,52.967z"/>
		<path style="fill-rule:evenodd;clip-rule:evenodd;fill:#1A1A1A;" d="M139.443,64.877c-7.162,11.414-20.203,26.266-34.317,35.32
			l2.564,3.816c14.277-6.681,31.795-20.794,38.323-28.929C153.81,65.368,146.668,53.363,139.443,64.877z"/>
		<path style="fill-rule:evenodd;clip-rule:evenodd;fill:#E7B791;" d="M104.561,96.746c-1.381,0.967-1.325,1.918-0.343,2.595
			c-2.212,1.16-2.901,3.714-2.149,4.788c1.462,2.09,4.95,2.173,7.789,0.186c2.84-1.987,3.956-5.292,2.494-7.383
			C110.889,94.842,107.4,94.759,104.561,96.746z"/>
		<g>
			<path style="fill-rule:evenodd;clip-rule:evenodd;fill:#323232;" d="M154.549,185.254l-20.446-51.25l-4.226-12.156l-1.414-4.05
				l13.987-4.839c6.854,23.122,13.708,46.244,20.563,69.367C160.192,183.302,157.37,184.278,154.549,185.254z"/>
			<polygon style="fill-rule:evenodd;clip-rule:evenodd;fill:#323232;" points="128.463,117.798 128.657,117.73 129.878,121.85 
				129.877,121.848 			"/>
		</g>
		
			<ellipse transform="matrix(-0.327 -0.945 0.945 -0.327 29.2796 392.9934)" style="fill-rule:evenodd;clip-rule:evenodd;fill:#1A1A1A;" cx="154.577" cy="186.071" rx="4.619" ry="9.197"/>
		
			<ellipse transform="matrix(0.3481 -0.9375 0.9375 0.3481 -141.5662 163.8561)" style="fill-rule:evenodd;clip-rule:evenodd;fill:#F5F0F0;" cx="47.03" cy="183.715" rx="4.213" ry="8.387"/>
		<g>
			
				<ellipse transform="matrix(0.4068 -0.9135 0.9135 0.4068 69.7285 183.6045)" style="fill-rule:evenodd;clip-rule:evenodd;fill:#E7B791;" cx="176.242" cy="38.11" rx="5.78" ry="3.699"/>
			
				<ellipse transform="matrix(-0.0363 -0.9993 0.9993 -0.0363 102.7389 149.9801)" style="fill-rule:evenodd;clip-rule:evenodd;fill:#E7B791;" cx="123.684" cy="25.454" rx="5.781" ry="3.699"/>
			
				<ellipse transform="matrix(0.1902 -0.9817 0.9817 0.1902 87.1974 173.969)" style="fill-rule:evenodd;clip-rule:evenodd;fill:#E7B791;" cx="149.051" cy="34.129" rx="20.796" ry="26.979"/>
			
				<ellipse transform="matrix(0.1902 -0.9817 0.9817 0.1902 84.4548 163.5784)" style="fill-rule:evenodd;clip-rule:evenodd;fill:#323232;" cx="141.381" cy="30.597" rx="2.624" ry="1.499"/>
			
				<ellipse transform="matrix(0.1902 -0.9817 0.9817 0.1902 94.4271 181.9119)" style="fill-rule:evenodd;clip-rule:evenodd;fill:#323232;" cx="157.484" cy="33.716" rx="2.624" ry="1.499"/>
			<path style="fill-rule:evenodd;clip-rule:evenodd;fill:#5E3A1D;" d="M172.931,19.088c-13.024-3.085-38.182,13.643-50.558,5.591
				c5.658-15.662,24.02-21.512,37.684-16.426C165.101,10.129,169.54,12.703,172.931,19.088z"/>
			<path style="fill-rule:evenodd;clip-rule:evenodd;fill:#5E3A1D;" d="M164.05,11.641c-4.798,10.628,3.711,25.086,12.192,26.469
				C179.388,29.184,173.471,15.208,164.05,11.641z"/>
			<path style="fill-rule:evenodd;clip-rule:evenodd;fill:#C79369;" d="M156.321,43.411c-3.952,0-13.266-1.872-17.482-3.387
				C142.283,46.283,151.661,48.295,156.321,43.411z"/>
			<path style="fill-rule:evenodd;clip-rule:evenodd;fill:#5E3A1D;" d="M172.839,19.56c-17.68-7.8-47.153,10.951-50.322-11.739
				c8.51,5.233,10.184,2.012,19.772-0.934C151.961,3.915,165.3,5.361,172.839,19.56z"/>
			<path style="fill-rule:evenodd;clip-rule:evenodd;fill:#5E3A1D;" d="M174.265,24.602C159.27,12.413,125.893,22.723,128.823,0
				c6.827,7.293,9.292,4.628,19.318,4.316C158.254,4.002,170.739,8.917,174.265,24.602z"/>
		</g>
		<g>
			
				<ellipse transform="matrix(-0.2652 -0.9642 0.9642 -0.2652 27.4434 86.9165)" style="fill-rule:evenodd;clip-rule:evenodd;fill:#5E3A1D;" cx="46.841" cy="33.001" rx="15.363" ry="15.517"/>
			
				<ellipse transform="matrix(-0.2652 -0.9642 0.9642 -0.2652 25.4351 91.9061)" style="fill-rule:evenodd;clip-rule:evenodd;fill:#F5F0F0;" cx="47.738" cy="36.261" rx="11.981" ry="17.54"/>
			
				<ellipse transform="matrix(-0.2652 -0.9642 0.9642 -0.2652 24.7809 93.5307)" style="fill-rule:evenodd;clip-rule:evenodd;fill:#5E3A1D;" cx="48.03" cy="37.323" rx="10.88" ry="19.508"/>
			
				<ellipse transform="matrix(-0.2652 -0.9642 0.9642 -0.2652 17.5442 110.9603)" style="fill-rule:evenodd;clip-rule:evenodd;fill:#E7B791;" cx="51.053" cy="48.795" rx="19.555" ry="22.062"/>
			<g>
				
					<ellipse transform="matrix(-0.2652 -0.9642 0.9642 -0.2652 29.2611 114.7157)" style="fill-rule:evenodd;clip-rule:evenodd;fill:#323232;" cx="58.34" cy="46.209" rx="2.467" ry="1.409"/>
				
					<ellipse transform="matrix(-0.2651 -0.9642 0.9642 -0.2651 6.4928 105.5464)" style="fill-rule:evenodd;clip-rule:evenodd;fill:#323232;" cx="43.469" cy="50.299" rx="2.467" ry="1.41"/>
			</g>
			<path style="fill-rule:evenodd;clip-rule:evenodd;fill:#C79369;" d="M61.565,53.555c-3.531,1.748-12.677,4.195-17.112,4.707
				C50.297,62.329,59.563,59.978,61.565,53.555z"/>
			
				<ellipse transform="matrix(-0.476 -0.8794 0.8794 -0.476 -4.6912 106.6855)" style="fill-rule:evenodd;clip-rule:evenodd;fill:#E7B791;" cx="29.438" cy="54.74" rx="5.761" ry="3.687"/>
			
				<ellipse transform="matrix(-0.0408 -0.9992 0.9992 -0.0408 32.4031 117.4178)" style="fill-rule:evenodd;clip-rule:evenodd;fill:#E7B791;" cx="72.564" cy="43.155" rx="5.761" ry="3.687"/>
			<g>
				<path style="fill-rule:evenodd;clip-rule:evenodd;fill:#5E3A1D;" d="M50.418,27.82c11.975,3.284,20.086,17.828,25.788,14.232
					C72.165,29.776,58.548,23.654,50.418,27.82z"/>
				<path style="fill-rule:evenodd;clip-rule:evenodd;fill:#5E3A1D;" d="M62.125,27.505c-17.185,3.736-21.34,29.617-36.561,27.665
					C21.797,36.275,40.678,22.316,62.125,27.505z"/>
			</g>
		</g>
	</g>
</g>
<g>
</g>
<g>
</g>
<g>
</g>
<g>
</g>
<g>
</g>
<g>
</g>
<g>
</g>
<g>
</g>
<g>
</g>
<g>
</g>
<g>
</g>
<g>
</g>
<g>
</g>
<g>
</g>
<g>
</g>
</svg>
