<?xml version="1.0" encoding="iso-8859-1"?>
<!-- Generator: Adobe Illustrator 18.0.0, SVG Export Plug-In . SVG Version: 6.00 Build 0)  -->
<!DOCTYPE svg PUBLIC "-//W3C//DTD SVG 1.1//EN" "http://www.w3.org/Graphics/SVG/1.1/DTD/svg11.dtd">
<svg version="1.1" id="Capa_1" xmlns="http://www.w3.org/2000/svg" xmlns:xlink="http://www.w3.org/1999/xlink" x="0px" y="0px"
	 viewBox="0 0 191.444 191.444" style="enable-background:new 0 0 191.444 191.444;" xml:space="preserve">
<g>
	<g>
		<path style="fill-rule:evenodd;clip-rule:evenodd;fill:#5E3A1D;" d="M187.281,34.902c-13.528-11.983-45.124-3.673-41.485-24.789
			c6.09,7.085,8.499,4.693,17.88,4.799C173.138,15.019,184.609,20.107,187.281,34.902z"/>
		<path style="fill-rule:evenodd;clip-rule:evenodd;fill:#5E3A1D;" d="M187.871,35.889c-11.345-14.068-43.884-11.132-36.781-31.348
			c4.826,8,7.599,6.042,16.832,7.708C177.234,13.929,187.698,20.855,187.871,35.889z"/>
		<path style="fill-rule:evenodd;clip-rule:evenodd;fill:#C79369;" d="M69.483,65.004c10.971,5.536,28.151,10.985,43.438,11.403
			l-0.203,4.188c-14.295,1.513-34.624-1.25-43.553-4.525C58.498,72.158,58.416,59.42,69.483,65.004z"/>
		
			<rect x="52.094" y="54.593" transform="matrix(-0.9281 0.3724 -0.3724 -0.9281 135.0403 99.5228)" style="fill-rule:evenodd;clip-rule:evenodd;fill:#C79369;" width="11.633" height="16.416"/>
		<path style="fill-rule:evenodd;clip-rule:evenodd;fill:#E7B791;" d="M68.534,99.734L56.799,81.202l-3.735-14.861
			c3.767-0.836,7.36-2.3,10.796-4.332c3.017,0.278,8.118,5.857,9.629,11.622l6.146,21.646L68.534,99.734z"/>
		
			<ellipse transform="matrix(-0.1897 -0.9818 0.9818 -0.1897 8.5779 69.1628)" style="fill-rule:evenodd;clip-rule:evenodd;fill:#5E3A1D;" cx="32.827" cy="31.042" rx="15.362" ry="15.518"/>
		
			<ellipse transform="matrix(-0.1898 -0.9818 0.9818 -0.1898 18.1595 97.1538)" style="fill-rule:evenodd;clip-rule:evenodd;fill:#F5F0F0;" cx="49.167" cy="41.084" rx="15.362" ry="15.518"/>
		
			<ellipse transform="matrix(-0.1897 -0.9818 0.9818 -0.1897 21.0208 106.8238)" style="fill-rule:evenodd;clip-rule:evenodd;fill:#E7B791;" cx="54.588" cy="44.738" rx="19.555" ry="20.202"/>
		<path style="fill-rule:evenodd;clip-rule:evenodd;fill:#F5F0F0;" d="M75.92,94.368c24.945,0,45.366,30.695,47.061,69.56
			c-12.914,10.177-29.268,16.262-47.061,16.262c-17.792,0-34.147-6.085-47.061-16.262C30.555,125.064,50.975,94.368,75.92,94.368z"
			/>
		<path style="fill-rule:evenodd;clip-rule:evenodd;fill:#F5F0F0;" d="M56.799,81.202c1.338-0.51,7.675-12.951,14.185-13.097
			c1.095,1.694,2.001,3.599,2.505,5.525l6.084,21.428l0.062,0.22l-11.102,4.454L56.799,81.202z"/>
		<path style="fill-rule:evenodd;clip-rule:evenodd;fill:#E7B791;" d="M64.331,68.661c10.889,5.695,27.988,11.394,43.267,12.035
			l-0.264,4.185c-14.316,1.304-34.602-1.755-43.483-5.16C53.243,75.654,53.347,62.915,64.331,68.661z"/>
		<path style="fill-rule:evenodd;clip-rule:evenodd;fill:#E7B791;" d="M109.74,77.235c1.532-0.131,2.049,0.568,1.757,1.615
			c2.226-0.482,4.202,0.903,4.304,2.094c0.198,2.318-2.193,4.415-5.343,4.685c-3.149,0.27-5.863-1.391-6.062-3.708
			C104.199,79.602,106.591,77.505,109.74,77.235z"/>
		<path style="fill-rule:evenodd;clip-rule:evenodd;fill:#F5F0F0;" d="M70.134,186.904c4.619,0,8.387-1.893,8.387-4.213
			c0-2.319-3.768-4.212-8.387-4.212c-4.62,0-8.387,1.893-8.387,4.212C61.747,185.011,65.515,186.904,70.134,186.904z"/>
		<path style="fill-rule:evenodd;clip-rule:evenodd;fill:#5E3A1D;" d="M66.65,28.903c-8.733,19.449-18.823,19.025-20.068,33.902
			c-5.947-2.429-10.547-7.603-11.829-14.233c-2.049-10.604,5.17-20.916,16.125-23.033C56.642,24.425,62.292,25.803,66.65,28.903z"/>
		
			<ellipse transform="matrix(-0.4065 -0.9137 0.9137 -0.4065 25.6436 115.1302)" style="fill-rule:evenodd;clip-rule:evenodd;fill:#E7B791;" cx="50.216" cy="49.236" rx="5.761" ry="3.687"/>
		<path style="opacity:0.5;fill-rule:evenodd;clip-rule:evenodd;fill:#F5F0F0;" d="M30.798,15.122
			C25.683,41.39,36.557,74.669,53.565,97.77c-0.179,0.056-0.359,0.111-0.539,0.166c-17.036,5.135-34.45,4.029-49.752-1.987
			C-3.188,70.558-2.904,23.963,30.798,15.122z"/>
		
			<ellipse transform="matrix(-0.1898 -0.9818 0.9818 -0.1898 41.0513 117.7973)" style="fill-rule:evenodd;clip-rule:evenodd;fill:#323232;" cx="69.127" cy="41.961" rx="2.467" ry="1.41"/>
		<path style="fill-rule:evenodd;clip-rule:evenodd;fill:#C79369;" d="M74.233,48.997c-3.091,0.564-6.182,0.974-8.24,1.051
			c1.986,1.625,4.481,2.453,6.976,2.554C73.507,51.448,73.931,50.241,74.233,48.997z"/>
		<g>
			<polygon style="fill-rule:evenodd;clip-rule:evenodd;fill:#323232;" points="131.566,147 132.596,126.79 133.508,113.952 
				133.805,109.674 148.568,110.744 144.398,146.128 			"/>
			<polygon style="fill-rule:evenodd;clip-rule:evenodd;fill:#323232;" points="133.805,109.674 134.011,109.689 133.508,113.954 
				133.508,113.952 			"/>
		</g>
		<g>
			<path style="fill-rule:evenodd;clip-rule:evenodd;fill:#323232;" d="M151.556,180.161L131.566,147l12.127-4.208l15.77,33.163
				C156.828,177.358,154.191,178.759,151.556,180.161z"/>
			
				<ellipse transform="matrix(-0.4695 -0.8829 0.8829 -0.4695 63.1659 399.8794)" style="fill-rule:evenodd;clip-rule:evenodd;fill:#1A1A1A;" cx="151.71" cy="180.964" rx="4.619" ry="9.197"/>
		</g>
		<path style="fill-rule:evenodd;clip-rule:evenodd;fill:#080808;" d="M159.108,60.532c-11.671,6.734-30.147,13.753-46.858,15.148
			l0.479,4.573c15.744,0.779,37.831-3.493,47.406-7.626C171.574,67.691,170.882,53.739,159.108,60.532z"/>
		
			<rect x="162.031" y="55.064" transform="matrix(-0.9367 -0.3503 0.3503 -0.9367 303.8784 170.7426)" style="fill-rule:evenodd;clip-rule:evenodd;fill:#F5F0F0;" width="10.696" height="5.655"/>
		<polygon style="fill-rule:evenodd;clip-rule:evenodd;fill:#1A1A1A;" points="132.918,106.658 156.137,115.341 154.685,120.15 
			131.178,111.359 		"/>
		<polygon style="fill-rule:evenodd;clip-rule:evenodd;fill:#323232;" points="155.171,118.552 172.655,59.161 164.465,58.005 
			142.658,82.64 131.776,109.679 		"/>
		<path style="fill-rule:evenodd;clip-rule:evenodd;fill:#F5F0F0;" d="M163.942,54.86c-7.949,17.669-10.795,26.552-21.273,29.889
			l2.877-7.767l14.385-16.995l3.43-6.618L163.942,54.86z"/>
		<path style="fill-rule:evenodd;clip-rule:evenodd;fill:#323232;" d="M164.525,52.573l-4.302,11.719l-1.211,1.627l-11.761,15.159
			l-7.508,7.658l5.724-12.424l14.465-16.324l2.808-5.792c0.427-0.88,1.139-4.623,1.139-4.623L164.525,52.573z"/>
		<path style="fill-rule:evenodd;clip-rule:evenodd;fill:#1A1A1A;" d="M161.156,62.688c-11.321,7.308-29.425,15.239-46.045,17.464
			l0.707,4.544c15.763-0.007,37.61-5.374,46.967-9.979C173.963,69.216,172.576,55.316,161.156,62.688z"/>
		<path style="fill-rule:evenodd;clip-rule:evenodd;fill:#E7B791;" d="M112.218,76.612c-1.672-0.214-2.272,0.527-2,1.688
			c-2.417-0.63-4.646,0.795-4.813,2.095c-0.324,2.53,2.2,4.939,5.637,5.38c3.438,0.441,6.488-1.252,6.813-3.782
			C118.179,79.462,115.655,77.053,112.218,76.612z"/>
		<g>
			
				<ellipse transform="matrix(0.1479 -0.989 0.989 0.1479 109.4328 197.4572)" style="fill-rule:evenodd;clip-rule:evenodd;fill:#E7B791;" cx="169.304" cy="35.223" rx="21.443" ry="22.153"/>
			<path style="fill-rule:evenodd;clip-rule:evenodd;fill:#5E3A1D;" d="M155.352,18.436c3.292,15.5,29.587,25.203,23.565,36.207
				c6.401-2.939,11.201-8.822,12.296-16.144c1.751-11.712-6.638-22.674-18.738-24.483C166.107,13.064,159.983,14.837,155.352,18.436
				z"/>
			
				<ellipse transform="matrix(0.3673 -0.9301 0.9301 0.3673 73.1276 187.3952)" style="fill-rule:evenodd;clip-rule:evenodd;fill:#E7B791;" cx="174.303" cy="39.947" rx="6.317" ry="4.043"/>
			
				<ellipse transform="matrix(0.1478 -0.989 0.989 0.1478 98.0998 179.565)" style="fill-rule:evenodd;clip-rule:evenodd;fill:#323232;" cx="153.246" cy="32.858" rx="2.706" ry="1.546"/>
			<path style="fill-rule:evenodd;clip-rule:evenodd;fill:#C79369;" d="M147.98,40.804c3.414,0.474,6.819,0.779,9.078,0.768
				c-2.101,1.873-4.795,2.895-7.524,3.123C148.891,43.455,148.369,42.153,147.98,40.804z"/>
		</g>
		<path style="fill-rule:evenodd;clip-rule:evenodd;fill:#5E3A1D;" d="M150.846,22.72c4.535,2.122,8.686,4.559,13.371,9.559
			c5.15,5.495,21.439-13.89,12.832-17.237C168.442,11.696,157.92,9.689,150.846,22.72z"/>
	</g>
</g>
<g>
</g>
<g>
</g>
<g>
</g>
<g>
</g>
<g>
</g>
<g>
</g>
<g>
</g>
<g>
</g>
<g>
</g>
<g>
</g>
<g>
</g>
<g>
</g>
<g>
</g>
<g>
</g>
<g>
</g>
</svg>
