<?xml version="1.0" encoding="iso-8859-1"?>
<!-- Generator: Adobe Illustrator 18.0.0, SVG Export Plug-In . SVG Version: 6.00 Build 0)  -->
<!DOCTYPE svg PUBLIC "-//W3C//DTD SVG 1.1//EN" "http://www.w3.org/Graphics/SVG/1.1/DTD/svg11.dtd">
<svg version="1.1" id="Capa_1" xmlns="http://www.w3.org/2000/svg" xmlns:xlink="http://www.w3.org/1999/xlink" x="0px" y="0px"
	 viewBox="0 0 182.116 182.116" style="enable-background:new 0 0 182.116 182.116;" xml:space="preserve">
<g>
	<g>
		<path style="fill-rule:evenodd;clip-rule:evenodd;fill:#D9ECED;" d="M126.645,5.14c-24.945,0-45.365,30.695-47.061,69.56
			c12.913,10.177,29.268,16.262,47.061,16.262c17.793,0,34.147-6.084,47.062-16.262C172.011,35.834,151.59,5.14,126.645,5.14z"/>
		
			<ellipse transform="matrix(0.2257 -0.9742 0.9742 0.2257 56.8637 127.7229)" style="fill-rule:evenodd;clip-rule:evenodd;fill:#E7B791;" cx="108.78" cy="28.09" rx="5.761" ry="3.687"/>
		
			<ellipse transform="matrix(-0.2257 -0.9742 0.9742 -0.2257 42.35 84.9958)" style="fill-rule:evenodd;clip-rule:evenodd;fill:#E7B791;" cx="54.952" cy="25.668" rx="5.761" ry="3.687"/>
		<path style="fill-rule:evenodd;clip-rule:evenodd;fill:#1A1A1A;" d="M88.545,61.007c12.081,3.577,31.554,17.058,43.479,32.264
			l3.438-2.816c-7.733-13.129-22.751-28.955-31.339-34.235C99.706,53.502,90.249,56.661,88.545,61.007z"/>
		<g>
			<path style="fill-rule:evenodd;clip-rule:evenodd;fill:#323232;" d="M84.184,177.652c-1.122-24.093-2.242-48.186-3.364-72.278
				c5.188,0,10.379,0,15.568,0c-1.082,24.093-2.166,48.186-3.248,72.278C90.155,177.652,87.169,177.652,84.184,177.652z"/>
			<path style="fill-rule:evenodd;clip-rule:evenodd;fill:#323232;" d="M69.589,177.652c-1.122-24.093-2.243-48.186-3.365-72.278
				c5.189,0,10.38,0,15.568,0c-1.082,24.093-2.165,48.186-3.247,72.278C75.56,177.652,72.574,177.652,69.589,177.652z"/>
		</g>
		<rect x="64.908" y="106.285" style="fill-rule:evenodd;clip-rule:evenodd;fill:#1A1A1A;" width="32.597" height="3.379"/>
		<path style="fill-rule:evenodd;clip-rule:evenodd;fill:#323232;" d="M97.505,107.88l5.669-52.23l-12.722-5.559H72.159
			c-4.241,1.853-10.139,3.374-12.722,5.559l5.47,52.23H97.505z"/>
		<polygon style="fill-rule:evenodd;clip-rule:evenodd;fill:#F5F0F0;" points="72.159,50.091 81.299,94.092 90.452,50.091 		"/>
		<g>
			<polygon style="fill-rule:evenodd;clip-rule:evenodd;fill:#1A1A1A;" points="72.159,50.091 63.579,59.716 73.502,68.222 
				66.414,72.829 81.299,94.092 			"/>
			<polygon style="fill-rule:evenodd;clip-rule:evenodd;fill:#1A1A1A;" points="90.452,50.091 99.019,59.716 89.096,68.222 
				96.184,72.829 81.299,94.092 			"/>
		</g>
		<polygon style="fill-rule:evenodd;clip-rule:evenodd;fill:#1A1A1A;" points="80.178,107.88 82.659,107.88 82.659,92.15 
			81.299,93.44 80.178,92.376 		"/>
		<polygon style="fill-rule:evenodd;clip-rule:evenodd;fill:#F5F0F0;" points="72.159,50.091 78.051,44.287 81.419,50.091 
			73.827,58.108 		"/>
		<polygon style="fill-rule:evenodd;clip-rule:evenodd;fill:#F5F0F0;" points="90.452,50.091 84.704,44.287 81.419,50.091 
			88.824,58.108 		"/>
		<polygon style="fill-rule:evenodd;clip-rule:evenodd;fill:#323232;" points="73.827,58.108 81.419,54.1 88.824,58.108 
			81.419,50.091 		"/>
		<polygon style="fill-rule:evenodd;clip-rule:evenodd;fill:#323232;" points="81.419,50.091 77.623,54.1 81.419,64.76 85.214,54.1 
					"/>
		<polygon style="fill-rule:evenodd;clip-rule:evenodd;fill:#323232;" points="80.059,60.942 82.582,60.942 85.876,72.091 
			81.299,94.092 76.73,72.091 		"/>
		<path style="fill-rule:evenodd;clip-rule:evenodd;fill:#1A1A1A;" d="M69.655,182.116c4.896,0,8.89-2.006,8.89-4.465
			s-3.993-4.465-8.89-4.465c-4.896,0-8.89,2.006-8.89,4.465S64.759,182.116,69.655,182.116z"/>
		<path style="fill-rule:evenodd;clip-rule:evenodd;fill:#1A1A1A;" d="M93.073,182.116c4.896,0,8.891-2.006,8.891-4.465
			s-3.994-4.465-8.891-4.465c-4.896,0-8.89,2.006-8.89,4.465S88.178,182.116,93.073,182.116z"/>
		<path style="fill-rule:evenodd;clip-rule:evenodd;fill:#E7B791;" d="M81.419,50.077c14.811,0,26.89-9.312,26.89-20.728
			c0-11.417-12.079-20.728-26.89-20.728c-14.81,0-26.89,9.311-26.89,20.728C54.529,40.765,66.609,50.077,81.419,50.077z"/>
		<g>
			<path style="fill-rule:evenodd;clip-rule:evenodd;fill:#323232;" d="M70.283,34.789c0.823,0,1.494-1.174,1.494-2.615
				c0-1.44-0.671-2.615-1.494-2.615c-0.823,0-1.494,1.175-1.494,2.615C68.789,33.615,69.46,34.789,70.283,34.789z"/>
			<path style="fill-rule:evenodd;clip-rule:evenodd;fill:#323232;" d="M86.632,34.789c0.823,0,1.494-1.174,1.494-2.615
				c0-1.44-0.671-2.615-1.494-2.615c-0.823,0-1.494,1.175-1.494,2.615C85.138,33.615,85.809,34.789,86.632,34.789z"/>
		</g>
		<path style="fill-rule:evenodd;clip-rule:evenodd;fill:#5E3A1D;" d="M91.832,4.5c-2.68,11.31,8.386,23.844,16.947,23.589
			C110.166,18.76,101.727,6.206,91.832,4.5z"/>
		<path style="fill-rule:evenodd;clip-rule:evenodd;fill:#C79369;" d="M88.528,41.216c-3.868,0.749-13.336,0.683-17.747,0
			C75.336,46.688,84.895,46.878,88.528,41.216z"/>
		<path style="fill-rule:evenodd;clip-rule:evenodd;fill:#E7B791;" d="M112.859,61.832c-8.898,9.437-14.507,24.999-29.697,35.082
			l2.393,3.443c12.924-6.295,24.939-16.337,30.546-24.021C118.985,72.384,115.879,58.629,112.859,61.832z"/>
		<path style="fill-rule:evenodd;clip-rule:evenodd;fill:#E7B791;" d="M125.863,60.293c9.105,7.642,20.879,26.633,25.473,44.277
			l4.034-1.143c-1.749-14.269-8.785-33.612-14.228-41.413C138.343,58.002,128.974,57.176,125.863,60.293z"/>
		<g>
			<path style="fill-rule:evenodd;clip-rule:evenodd;fill:#E7B791;" d="M129.381,177.904c-1.059-22.73-2.116-45.46-3.175-68.19
				c4.895,0,9.792,0,14.688,0c-1.021,22.73-2.042,45.46-3.064,68.19C135.014,177.904,132.197,177.904,129.381,177.904z"/>
			<path style="fill-rule:evenodd;clip-rule:evenodd;fill:#E7B791;" d="M115.611,177.904c-1.059-22.73-2.116-45.46-3.174-68.19
				c4.896,0,9.792,0,14.688,0c-1.021,22.73-2.043,45.46-3.063,68.19C121.244,177.904,118.427,177.904,115.611,177.904z"/>
		</g>
		<rect x="120.849" y="48.104" style="fill-rule:evenodd;clip-rule:evenodd;fill:#C79369;" width="11.633" height="16.417"/>
		<path style="fill-rule:evenodd;clip-rule:evenodd;fill:#E7B791;" d="M133.903,94.544l6.67-33.215l-8.091-3.535h-11.633
			c-2.696,1.381-6.357,2.317-8.09,4.144l6.58,32.606H133.903z"/>
		<path style="fill-rule:evenodd;clip-rule:evenodd;fill:#F5F0F0;" d="M115.673,182.116c4.62,0,8.388-1.893,8.388-4.212
			c0-2.32-3.768-4.213-8.388-4.213c-4.619,0-8.387,1.893-8.387,4.213C107.286,180.223,111.054,182.116,115.673,182.116z"/>
		<path style="fill-rule:evenodd;clip-rule:evenodd;fill:#F5F0F0;" d="M137.768,182.116c4.619,0,8.387-1.893,8.387-4.212
			c0-2.32-3.768-4.213-8.387-4.213c-4.619,0-8.387,1.893-8.387,4.213C129.381,180.223,133.149,182.116,137.768,182.116z"/>
		<path style="fill-rule:evenodd;clip-rule:evenodd;fill:#E7B791;" d="M158.939,105.137c0.65,1.393,0.174,2.119-0.911,2.206
			c1.22,1.924,0.601,4.256-0.482,4.763c-2.107,0.985-4.9-0.537-6.239-3.4c-1.339-2.863-0.716-5.983,1.392-6.969
			C154.806,100.751,157.6,102.274,158.939,105.137z"/>
		<path style="fill-rule:evenodd;clip-rule:evenodd;fill:#1A1A1A;" d="M60.029,54.901c2.865,11.893,9.681,29.365,19.888,40.521
			l-1.607,3.576c-8.684-7.071-16.759-19.975-20.526-28.292C55.845,66.427,57.368,56.821,60.029,54.901z"/>
		<path style="fill-rule:evenodd;clip-rule:evenodd;fill:#E7B791;" d="M84.819,96.394c1.222,1.078,1.064,1.986,0.048,2.529
			c1.999,1.355,2.384,3.883,1.545,4.833c-1.631,1.849-4.989,1.55-7.502-0.667c-2.512-2.217-3.226-5.513-1.594-7.361
			C78.947,93.878,82.307,94.177,84.819,96.394z"/>
		<path style="fill-rule:evenodd;clip-rule:evenodd;fill:#E7B791;" d="M80.192,96.608c-1.152,1.018-1.005,1.874-0.045,2.387
			c-1.886,1.277-2.249,3.663-1.458,4.56c1.539,1.744,4.708,1.462,7.078-0.63c2.369-2.091,3.043-5.2,1.503-6.944
			C85.731,94.235,82.562,94.517,80.192,96.608z"/>
		<path style="fill-rule:evenodd;clip-rule:evenodd;fill:#F5F0F0;" d="M136.045,94.544l3.263-21.568
			c0.058-0.264,0.088-0.535,0.088-0.811c0-2.803-3.081-5.076-6.884-5.076c-2.481,0-4.656,0.968-5.867,2.42
			c-1.211-1.452-3.386-2.42-5.867-2.42c-3.803,0-6.884,2.273-6.884,5.076c0,0.267,0.027,0.529,0.081,0.785l3.191,21.594H136.045z"/>
		<path style="fill-rule:evenodd;clip-rule:evenodd;fill:#F5F0F0;" d="M126.645,92.081c-24.945,0-45.365,30.695-47.061,69.561
			c12.913,10.177,29.268,16.262,47.061,16.262c17.793,0,34.147-6.085,47.062-16.262C172.011,122.777,151.59,92.081,126.645,92.081z"
			/>
		<path style="fill-rule:evenodd;clip-rule:evenodd;fill:#E7B791;" d="M136.556,97.596c1.497,0,2.719-1.956,2.719-4.354
			c0-2.397-1.222-4.354-2.719-4.354c-1.496,0-2.717,1.957-2.717,4.354C133.839,95.64,135.06,97.596,136.556,97.596z"/>
		<path style="fill-rule:evenodd;clip-rule:evenodd;fill:#D9ECED;" d="M33.421,107.751l30.492-6.14l8.202-1.651l14.931-3.006
			l0.678,3.364l-14.931,3.007l0.677,3.364C61.343,109.861,39.712,114.727,33.421,107.751z"/>
		<g>
			<path style="fill-rule:evenodd;clip-rule:evenodd;fill:#F5F0F0;" d="M30.751,59.082h17.6c3.164,0,5.752,2.588,5.752,5.753v22.746
				H24.998V64.835C24.998,61.671,27.587,59.082,30.751,59.082z"/>
			<path style="fill-rule:evenodd;clip-rule:evenodd;fill:#F5F0F0;" d="M25.232,81.621H53.87c3.164,0,5.753,2.588,5.753,5.752
				v22.745H19.479V87.373C19.479,84.209,22.068,81.621,25.232,81.621z"/>
			<path style="fill-rule:evenodd;clip-rule:evenodd;fill:#F5F0F0;" d="M18.842,104.89h41.416c3.164,0,5.753,2.589,5.753,5.753
				v22.745H13.09v-22.745C13.09,107.479,15.679,104.89,18.842,104.89z"/>
		</g>
		<path style="fill-rule:evenodd;clip-rule:evenodd;fill:#E7B791;" d="M82.659,105.244c2.409,0,4.374-1.66,4.374-3.696
			c0-2.035-1.965-3.695-4.374-3.695c-2.41,0-4.375,1.66-4.375,3.695C78.284,103.583,80.249,105.244,82.659,105.244z"/>
		<rect x="8.409" y="133.388" style="fill-rule:evenodd;clip-rule:evenodd;fill:#1A1A1A;" width="62.282" height="5.352"/>
		<rect x="34.044" y="133.388" style="fill-rule:evenodd;clip-rule:evenodd;fill:#1A1A1A;" width="11.013" height="44.821"/>
		<rect x="25.119" y="176.763" style="fill-rule:evenodd;clip-rule:evenodd;fill:#1A1A1A;" width="28.862" height="5.352"/>
		<path style="fill:#CCCCCC;" d="M24.998,81.626c-0.684,0-1.238-0.555-1.238-1.238s0.554-1.238,1.238-1.238
			c0.374,0,0.712-1.012,1.062-2.057c0.667-1.995,1.357-4.059,3.789-4.059c2.433,0,3.123,2.064,3.79,4.059
			c0.35,1.045,0.688,2.057,1.061,2.057c0.375,0,0.712-1.012,1.062-2.057c0.667-1.995,1.357-4.059,3.79-4.059
			c2.433,0,3.123,2.064,3.79,4.059c0.349,1.045,0.688,2.057,1.062,2.057s0.712-1.012,1.062-2.057
			c0.667-1.995,1.357-4.059,3.789-4.059c2.433,0,3.123,2.064,3.79,4.059c0.349,1.045,0.687,2.057,1.061,2.057
			c0.684,0,1.238,0.554,1.238,1.238s-0.555,1.238-1.238,1.238c-2.148,0-2.765-1.844-3.402-3.75
			c-0.389-1.162-0.791-2.366-1.449-2.366c-0.657,0-1.06,1.204-1.449,2.366c-0.637,1.906-1.253,3.75-3.402,3.75
			c-2.149,0-2.765-1.844-3.402-3.75c-0.389-1.162-0.792-2.366-1.449-2.366s-1.06,1.204-1.449,2.366
			c-0.637,1.906-1.253,3.75-3.402,3.75c-2.148,0-2.765-1.844-3.402-3.75c-0.389-1.162-0.791-2.366-1.449-2.366
			c-0.658,0-1.06,1.204-1.449,2.366C27.763,79.782,27.147,81.626,24.998,81.626L24.998,81.626z M19.479,104.89
			c-0.684,0-1.238-0.555-1.238-1.238c0-0.684,0.555-1.237,1.238-1.237c0.429,0,0.78-1.017,1.143-2.066
			c0.688-1.99,1.4-4.05,3.875-4.05c2.475,0,3.187,2.06,3.875,4.05c0.363,1.05,0.714,2.066,1.143,2.066
			c0.429,0,0.78-1.017,1.143-2.066c0.688-1.99,1.4-4.05,3.874-4.05c2.475,0,3.187,2.061,3.875,4.05
			c0.363,1.05,0.715,2.066,1.143,2.066c0.429,0,0.781-1.017,1.144-2.066c0.688-1.99,1.4-4.05,3.875-4.05
			c2.475,0,3.187,2.06,3.875,4.05c0.363,1.05,0.714,2.066,1.143,2.066c0.429,0,0.78-1.017,1.143-2.066
			c0.688-1.99,1.401-4.05,3.875-4.05c2.475,0,3.187,2.06,3.875,4.05c0.363,1.05,0.714,2.066,1.143,2.066
			c0.684,0,1.238,0.554,1.238,1.237c0,0.684-0.555,1.238-1.238,1.238c-2.18,0-2.817-1.839-3.474-3.739
			c-0.403-1.167-0.822-2.376-1.544-2.376c-0.723,0-1.141,1.209-1.544,2.376c-0.657,1.9-1.293,3.739-3.474,3.739
			c-2.181,0-2.817-1.839-3.474-3.739c-0.403-1.167-0.821-2.376-1.544-2.376c-0.722,0-1.141,1.209-1.544,2.376
			c-0.657,1.9-1.294,3.739-3.474,3.739c-2.181,0-2.816-1.838-3.474-3.739c-0.403-1.167-0.822-2.376-1.545-2.376
			c-0.722,0-1.14,1.209-1.543,2.376c-0.657,1.9-1.294,3.739-3.474,3.739c-2.181,0-2.817-1.839-3.474-3.739
			c-0.403-1.167-0.822-2.376-1.544-2.376c-0.722,0-1.14,1.209-1.544,2.376C22.296,103.051,21.659,104.89,19.479,104.89
			L19.479,104.89z M13.09,133.388c-0.684,0-1.238-0.554-1.238-1.237s0.554-1.238,1.238-1.238c0.513,0,0.888-1.026,1.274-2.086
			c0.722-1.979,1.47-4.03,4.018-4.03c2.548,0,3.296,2.051,4.018,4.031c0.387,1.06,0.761,2.085,1.274,2.085
			c0.513,0,0.888-1.026,1.274-2.086c0.722-1.979,1.47-4.03,4.018-4.03c2.548,0,3.296,2.051,4.019,4.031
			c0.386,1.059,0.761,2.085,1.274,2.085s0.888-1.026,1.274-2.086c0.722-1.979,1.47-4.03,4.019-4.03c2.548,0,3.295,2.051,4.018,4.03
			c0.386,1.06,0.761,2.086,1.274,2.086c0.513,0,0.888-1.026,1.274-2.086c0.722-1.979,1.47-4.03,4.018-4.03
			c2.548,0,3.296,2.051,4.018,4.03c0.386,1.06,0.761,2.086,1.274,2.086c0.514,0,0.888-1.026,1.274-2.086
			c0.722-1.979,1.47-4.03,4.018-4.03c2.548,0,3.296,2.051,4.018,4.03c0.387,1.06,0.761,2.086,1.274,2.086
			c0.683,0,1.238,0.555,1.238,1.238s-0.555,1.237-1.238,1.237c-2.238,0-2.906-1.829-3.596-3.72
			c-0.429-1.177-0.874-2.396-1.697-2.396c-0.823,0-1.268,1.219-1.697,2.396c-0.689,1.891-1.356,3.72-3.595,3.72
			c-2.238,0-2.906-1.829-3.595-3.72c-0.429-1.177-0.874-2.396-1.697-2.396c-0.823,0-1.268,1.219-1.697,2.396
			c-0.689,1.891-1.357,3.72-3.595,3.72c-2.239,0-2.906-1.829-3.595-3.72c-0.429-1.177-0.874-2.396-1.697-2.396
			c-0.824,0-1.269,1.219-1.697,2.396c-0.689,1.891-1.357,3.72-3.595,3.72c-2.239,0-2.906-1.829-3.595-3.72
			c-0.429-1.177-0.874-2.396-1.697-2.396c-0.823,0-1.267,1.219-1.697,2.396c-0.689,1.891-1.357,3.72-3.595,3.72
			c-2.238,0-2.906-1.829-3.595-3.72c-0.429-1.177-0.874-2.396-1.697-2.396c-0.823,0-1.267,1.219-1.697,2.396
			C15.996,131.559,15.328,133.388,13.09,133.388z"/>
		<g>
			<g>
				
					<ellipse transform="matrix(0.226 -0.9741 0.9741 0.226 -8.1653 80.6413)" style="fill-rule:evenodd;clip-rule:evenodd;fill:#E7B791;" cx="46.662" cy="45.459" rx="0.518" ry="0.332"/>
				
					<ellipse transform="matrix(-0.2254 -0.9743 0.9743 -0.2254 7.1764 96.188)" style="fill-rule:evenodd;clip-rule:evenodd;fill:#E7B791;" cx="41.825" cy="45.241" rx="0.518" ry="0.331"/>
				<g>
					<path style="fill-rule:evenodd;clip-rule:evenodd;fill:#1A1A1A;" d="M42.233,47.948c-0.406,1.057-1.372,2.429-2.818,3.389
						l0.228,0.328c1.231-0.599,2.375-1.556,2.909-2.287C42.826,49,42.61,48.131,42.233,47.948z"/>
					<path style="fill-rule:evenodd;clip-rule:evenodd;fill:#1A1A1A;" d="M44.844,48.417c1.085,0.321,2.835,1.533,3.907,2.899
						l0.309-0.253c-0.695-1.18-2.045-2.602-2.816-3.076C45.846,47.742,44.997,48.026,44.844,48.417z"/>
					<g>
						<path style="fill-rule:evenodd;clip-rule:evenodd;fill:#323232;" d="M44.452,58.897c-0.101-2.165-0.202-4.33-0.302-6.495
							c0.466,0,0.933,0,1.399,0c-0.097,2.165-0.195,4.33-0.292,6.495C44.988,58.897,44.72,58.897,44.452,58.897z"/>
						<path style="fill-rule:evenodd;clip-rule:evenodd;fill:#323232;" d="M43.141,58.897c-0.101-2.165-0.202-4.33-0.303-6.495
							c0.466,0,0.933,0,1.399,0c-0.097,2.165-0.194,4.33-0.292,6.495C43.677,58.897,43.409,58.897,43.141,58.897z"/>
					</g>
					<rect x="42.72" y="52.484" style="fill-rule:evenodd;clip-rule:evenodd;fill:#1A1A1A;" width="2.929" height="0.304"/>
					<path style="fill-rule:evenodd;clip-rule:evenodd;fill:#323232;" d="M45.649,52.628l0.509-4.693l-1.143-0.5h-1.644
						c-0.381,0.167-0.911,0.303-1.144,0.5l0.492,4.693H45.649z"/>
					<polygon style="fill-rule:evenodd;clip-rule:evenodd;fill:#F5F0F0;" points="43.372,47.435 44.193,51.389 45.015,47.435 					
						"/>
					<g>
						<polygon style="fill-rule:evenodd;clip-rule:evenodd;fill:#1A1A1A;" points="43.372,47.435 42.601,48.301 43.492,49.065 
							42.855,49.479 44.193,51.389 						"/>
						<polygon style="fill-rule:evenodd;clip-rule:evenodd;fill:#1A1A1A;" points="45.015,47.435 45.785,48.301 44.893,49.065 
							45.53,49.479 44.193,51.389 						"/>
					</g>
					<polygon style="fill-rule:evenodd;clip-rule:evenodd;fill:#1A1A1A;" points="44.092,52.628 44.315,52.628 44.315,51.215 
						44.193,51.331 44.092,51.235 					"/>
					<polygon style="fill-rule:evenodd;clip-rule:evenodd;fill:#F5F0F0;" points="43.372,47.435 43.901,46.914 44.203,47.435 
						43.521,48.156 					"/>
					<polygon style="fill-rule:evenodd;clip-rule:evenodd;fill:#F5F0F0;" points="45.015,47.435 44.499,46.914 44.203,47.435 
						44.869,48.156 					"/>
					<polygon style="fill-rule:evenodd;clip-rule:evenodd;fill:#323232;" points="43.521,48.156 44.203,47.796 44.869,48.156 
						44.203,47.435 					"/>
					<polygon style="fill-rule:evenodd;clip-rule:evenodd;fill:#323232;" points="44.203,47.435 43.862,47.796 44.203,48.754 
						44.545,47.796 					"/>
					<polygon style="fill-rule:evenodd;clip-rule:evenodd;fill:#323232;" points="44.081,48.411 44.308,48.411 44.604,49.412 
						44.193,51.389 43.782,49.412 					"/>
					<ellipse style="fill-rule:evenodd;clip-rule:evenodd;fill:#1A1A1A;" cx="43.147" cy="58.897" rx="0.799" ry="0.401"/>
					<ellipse style="fill-rule:evenodd;clip-rule:evenodd;fill:#1A1A1A;" cx="45.251" cy="58.897" rx="0.799" ry="0.401"/>
					<path style="fill-rule:evenodd;clip-rule:evenodd;fill:#E7B791;" d="M49.436,51.076c0.109,0.097,0.096,0.178,0.004,0.227
						c0.18,0.122,0.214,0.349,0.139,0.435c-0.146,0.166-0.449,0.139-0.674-0.06c-0.226-0.199-0.29-0.496-0.143-0.662
						C48.908,50.85,49.21,50.877,49.436,51.076z"/>
					<path style="fill-rule:evenodd;clip-rule:evenodd;fill:#E7B791;" d="M39.04,51.4c-0.11,0.097-0.096,0.179-0.004,0.228
						c-0.18,0.122-0.214,0.349-0.139,0.434c0.146,0.166,0.448,0.139,0.674-0.06c0.226-0.199,0.29-0.495,0.144-0.661
						C39.568,51.174,39.266,51.201,39.04,51.4z"/>
					<path style="fill-rule:evenodd;clip-rule:evenodd;fill:#E7B791;" d="M44.203,47.434c1.331,0,2.416-0.836,2.416-1.862
						c0-1.026-1.085-1.862-2.416-1.862c-1.331,0-2.416,0.836-2.416,1.862C41.787,46.598,42.873,47.434,44.203,47.434z"/>
					<g>
						<ellipse style="fill-rule:evenodd;clip-rule:evenodd;fill:#323232;" cx="43.469" cy="45.392" rx="0.134" ry="0.235"/>
						<ellipse style="fill-rule:evenodd;clip-rule:evenodd;fill:#323232;" cx="44.938" cy="45.392" rx="0.134" ry="0.235"/>
					</g>
					<path style="fill-rule:evenodd;clip-rule:evenodd;fill:#5E3A1D;" d="M45.359,43.398c-0.419,1.306-2.437,2.294-3.662,1.797
						C41.967,43.466,44.034,42.471,45.359,43.398z"/>
					<path style="fill-rule:evenodd;clip-rule:evenodd;fill:#5E3A1D;" d="M45.139,43.339c-0.241,1.016,0.753,2.142,1.523,2.12
						C46.786,44.62,46.028,43.492,45.139,43.339z"/>
					<path style="fill-rule:evenodd;clip-rule:evenodd;fill:#C79369;" d="M45.001,46.264c-0.348,0.067-1.198,0.061-1.595,0
						C43.816,46.756,44.674,46.773,45.001,46.264z"/>
				</g>
			</g>
			<g>
				<path style="fill-rule:evenodd;clip-rule:evenodd;fill:#D9ECED;" d="M35.183,43.396c2.241,0,4.076,2.758,4.229,6.25
					c-1.161,0.914-2.63,1.461-4.229,1.461c-1.599,0-3.068-0.547-4.229-1.461C31.107,46.155,32.942,43.396,35.183,43.396z"/>
				<path style="fill-rule:evenodd;clip-rule:evenodd;fill:#E7B791;" d="M36.422,48.491c0.799,0.848,1.304,2.246,2.668,3.152
					l-0.215,0.309c-1.161-0.565-2.241-1.468-2.745-2.158C35.872,49.439,36.151,48.203,36.422,48.491z"/>
				<path style="fill-rule:evenodd;clip-rule:evenodd;fill:#E7B791;" d="M35.181,48.887c-1.024,0.303-2.675,1.446-3.686,2.735
					l-0.292-0.239c0.656-1.113,1.929-2.454,2.657-2.902C34.235,48.251,35.036,48.519,35.181,48.887z"/>
				<g>
					<path style="fill-rule:evenodd;clip-rule:evenodd;fill:#E7B791;" d="M34.937,58.92c0.095-2.042,0.191-4.084,0.285-6.127
						c-0.439,0-0.88,0-1.319,0c0.091,2.042,0.184,4.084,0.275,6.127C34.431,58.92,34.684,58.92,34.937,58.92z"/>
					<path style="fill-rule:evenodd;clip-rule:evenodd;fill:#E7B791;" d="M36.174,58.92c0.095-2.042,0.19-4.084,0.285-6.127
						c-0.44,0-0.88,0-1.32,0c0.092,2.042,0.184,4.084,0.275,6.127C35.669,58.92,35.922,58.92,36.174,58.92z"/>
				</g>
				<path style="fill-rule:evenodd;clip-rule:evenodd;fill:#E7B791;" d="M34.531,51.43l-0.599-2.985l0.727-0.317h1.045
					c0.242,0.124,0.571,0.208,0.727,0.372l-0.591,2.93H34.531z"/>
				<ellipse style="fill-rule:evenodd;clip-rule:evenodd;fill:#F5F0F0;" cx="36.169" cy="58.92" rx="0.754" ry="0.378"/>
				<ellipse style="fill-rule:evenodd;clip-rule:evenodd;fill:#F5F0F0;" cx="34.184" cy="58.92" rx="0.753" ry="0.378"/>
				<path style="fill-rule:evenodd;clip-rule:evenodd;fill:#E7B791;" d="M30.848,51.396c-0.104,0.092-0.09,0.168-0.004,0.215
					c-0.169,0.115-0.202,0.329-0.131,0.41c0.139,0.157,0.423,0.131,0.636-0.057c0.213-0.188,0.274-0.467,0.135-0.624
					C31.346,51.184,31.061,51.208,30.848,51.396z"/>
				<path style="fill-rule:evenodd;clip-rule:evenodd;fill:#E7B791;" d="M39.357,51.615c0.104,0.091,0.09,0.168,0.004,0.214
					c0.169,0.115,0.202,0.329,0.131,0.41c-0.138,0.157-0.423,0.131-0.636-0.056c-0.213-0.188-0.273-0.468-0.135-0.624
					C38.86,51.402,39.144,51.428,39.357,51.615z"/>
				<rect x="34.659" y="47.257" style="fill-rule:evenodd;clip-rule:evenodd;fill:#E7B791;" width="1.045" height="1.475"/>
				<ellipse style="fill-rule:evenodd;clip-rule:evenodd;fill:#5E3A1D;" cx="35.183" cy="44.879" rx="1.394" ry="1.38"/>
				<ellipse style="fill-rule:evenodd;clip-rule:evenodd;fill:#F5F0F0;" cx="35.183" cy="45.183" rx="1.576" ry="1.076"/>
				<path style="fill-rule:evenodd;clip-rule:evenodd;fill:#5E3A1D;" d="M35.183,46.26c0.965,0,1.753-0.439,1.753-0.978
					c0-0.539-0.787-0.978-1.753-0.978c-0.965,0-1.753,0.439-1.753,0.978C33.43,45.821,34.218,46.26,35.183,46.26z"/>
				<path style="fill-rule:evenodd;clip-rule:evenodd;fill:#E7B791;" d="M35.172,48.105c1.255,0,2.28-0.789,2.28-1.757
					c0-0.968-1.024-1.757-2.28-1.757c-1.255,0-2.28,0.79-2.28,1.757C32.892,47.316,33.917,48.105,35.172,48.105z"/>
				<g>
					<ellipse style="fill-rule:evenodd;clip-rule:evenodd;fill:#323232;" cx="35.865" cy="46.298" rx="0.127" ry="0.222"/>
					<ellipse style="fill-rule:evenodd;clip-rule:evenodd;fill:#323232;" cx="34.479" cy="46.298" rx="0.127" ry="0.222"/>
				</g>
				<path style="fill-rule:evenodd;clip-rule:evenodd;fill:#C79369;" d="M35.969,47.011c-0.347,0.067-1.198,0.061-1.595,0
					C34.784,47.502,35.643,47.519,35.969,47.011z"/>
				<path style="fill-rule:evenodd;clip-rule:evenodd;fill:#F5F0F0;" d="M34.339,51.43l-0.294-1.938
					c-0.005-0.024-0.008-0.048-0.008-0.073c0-0.252,0.277-0.456,0.619-0.456c0.223,0,0.418,0.087,0.527,0.217
					c0.109-0.13,0.304-0.217,0.527-0.217c0.342,0,0.619,0.204,0.619,0.456c0,0.024-0.002,0.048-0.007,0.071l-0.287,1.94H34.339z"/>
				<path style="fill-rule:evenodd;clip-rule:evenodd;fill:#F5F0F0;" d="M35.183,51.208c2.241,0,4.076,2.758,4.229,6.25
					c-1.161,0.914-2.63,1.461-4.229,1.461c-1.599,0-3.068-0.547-4.229-1.461C31.107,53.967,32.942,51.208,35.183,51.208z"/>
				
					<ellipse transform="matrix(-0.2259 -0.9742 0.9742 -0.2259 -4.8284 88.8592)" style="fill-rule:evenodd;clip-rule:evenodd;fill:#E7B791;" cx="32.893" cy="46.348" rx="0.518" ry="0.331"/>
				
					<ellipse transform="matrix(0.2259 -0.9742 0.9742 0.2259 -16.1816 72.3815)" style="fill-rule:evenodd;clip-rule:evenodd;fill:#E7B791;" cx="37.451" cy="46.372" rx="0.518" ry="0.332"/>
				<g>
					<path style="fill-rule:evenodd;clip-rule:evenodd;fill:#5E3A1D;" d="M35.024,44.587c0.123,0.981,1.494,1.958,2.487,1.775
						C37.561,45.103,36.154,44.114,35.024,44.587z"/>
					<path style="fill-rule:evenodd;clip-rule:evenodd;fill:#5E3A1D;" d="M35.291,44.587c-0.124,0.981-1.494,1.958-2.487,1.775
						C32.754,45.103,34.16,44.114,35.291,44.587z"/>
				</g>
			</g>
			<g>
				<path style="fill-rule:evenodd;clip-rule:evenodd;fill:none;stroke:#F5F0F0;stroke-width:0.216;stroke-miterlimit:22.9256;" d="
					M30.436,51.666c-0.334,0.479-0.458,1.215-0.338,2.052"/>
				<path style="fill-rule:evenodd;clip-rule:evenodd;fill:none;stroke:#F5F0F0;stroke-width:0.216;stroke-miterlimit:22.9256;" d="
					M30.674,51.766c-0.077,0.58,0.153,1.29,0.644,1.978"/>
			</g>
			<path style="fill-rule:evenodd;clip-rule:evenodd;fill:#F5F0F0;" d="M31.936,51.321c-0.017,0.02-0.035,0.038-0.055,0.054
				c0.04,0.053,0.068,0.115,0.08,0.184c0.041,0.232-0.114,0.453-0.346,0.494c-0.026,0.005-0.052,0.007-0.077,0.007
				c-0.003,0.065-0.021,0.131-0.057,0.192c-0.118,0.204-0.379,0.274-0.583,0.156c-0.022-0.014-0.043-0.028-0.063-0.045
				c-0.045,0.048-0.101,0.087-0.167,0.111c-0.221,0.08-0.466-0.034-0.546-0.255c-0.009-0.024-0.016-0.05-0.02-0.075
				c-0.066,0.008-0.133,0.001-0.199-0.022c-0.222-0.081-0.336-0.325-0.255-0.547c0.009-0.024,0.021-0.048,0.033-0.07
				c-0.055-0.036-0.103-0.084-0.138-0.146c-0.118-0.204-0.048-0.465,0.156-0.583c0.023-0.013,0.046-0.024,0.07-0.032
				c-0.02-0.063-0.024-0.131-0.012-0.2c0.04-0.232,0.262-0.387,0.494-0.346c0.026,0.004,0.051,0.011,0.075,0.02
				c0.025-0.061,0.065-0.116,0.119-0.161c0.18-0.152,0.449-0.128,0.601,0.052c0.017,0.02,0.031,0.042,0.045,0.063
				c0.058-0.03,0.125-0.047,0.195-0.047c0.235,0,0.427,0.191,0.427,0.427c0,0.026-0.003,0.052-0.007,0.077
				c0.065,0.014,0.126,0.044,0.18,0.089C32.064,50.871,32.088,51.14,31.936,51.321z"/>
		</g>
		<path style="fill-rule:evenodd;clip-rule:evenodd;fill:#5E3A1D;" d="M101.903,10.611c-13.274-0.643-34.79,20.262-48.334,14.652
			C56.242,8.946,73.102-0.103,87.365,2.375C92.629,3.29,97.432,4.995,101.903,10.611z"/>
		<path style="fill-rule:evenodd;clip-rule:evenodd;fill:#5E3A1D;" d="M101.899,11.088C83.222,6.69,57.862,30.354,50.642,8.781
			c9.259,3.561,10.307,0.112,19.132-4.508C78.673-0.386,91.957-1.401,101.899,11.088z"/>
		<path style="fill-rule:evenodd;clip-rule:evenodd;fill:#5E3A1D;" d="M104.207,15.75C87.353,6.581,56.648,22.714,55.376,0
			c7.99,5.878,9.912,2.828,19.643,0.7C84.832-1.446,97.913,1.081,104.207,15.75z"/>
		<path style="fill-rule:evenodd;clip-rule:evenodd;fill:#5E3A1D;" d="M127.117,34.978c8.548,0,15.519-6.901,15.519-15.362
			c0-8.461-6.971-15.362-15.519-15.362c-8.547,0-15.518,6.901-15.518,15.362C111.6,28.077,118.57,34.978,127.117,34.978z"/>
		<path style="fill-rule:evenodd;clip-rule:evenodd;fill:#F5F0F0;" d="M127.117,34.978c9.661,0,17.54-5.382,17.54-11.981
			s-7.879-11.981-17.54-11.981c-9.66,0-17.539,5.382-17.539,11.981S117.457,34.978,127.117,34.978z"/>
		<path style="fill-rule:evenodd;clip-rule:evenodd;fill:#5E3A1D;" d="M127.118,34.978c10.744,0,19.508-4.888,19.508-10.88
			c0-5.993-8.764-10.88-19.508-10.88c-10.745,0-19.509,4.888-19.509,10.88C107.61,30.09,116.373,34.978,127.118,34.978z"/>
		<path style="fill-rule:evenodd;clip-rule:evenodd;fill:#E7B791;" d="M126.99,55.516c12.151,0,22.063-8.785,22.063-19.555
			s-9.911-19.556-22.063-19.556c-12.151,0-22.062,8.785-22.062,19.556S114.839,55.516,126.99,55.516z"/>
		<g>
			<path style="fill-rule:evenodd;clip-rule:evenodd;fill:#323232;" d="M131.303,40.957c0.776,0,1.409-1.108,1.409-2.467
				c0-1.359-0.633-2.467-1.409-2.467c-0.776,0-1.41,1.108-1.41,2.467C129.893,39.849,130.527,40.957,131.303,40.957z"/>
			<path style="fill-rule:evenodd;clip-rule:evenodd;fill:#323232;" d="M115.879,40.957c0.776,0,1.409-1.108,1.409-2.467
				c0-1.359-0.633-2.467-1.409-2.467c-0.776,0-1.41,1.108-1.41,2.467C114.469,39.849,115.103,40.957,115.879,40.957z"/>
		</g>
		<path style="fill-rule:evenodd;clip-rule:evenodd;fill:#C79369;" d="M132.464,46.429c-3.868,0.749-13.336,0.683-17.747,0
			C119.272,51.901,128.83,52.091,132.464,46.429z"/>
		
			<ellipse transform="matrix(-0.2257 -0.9742 0.9742 -0.2257 93.1411 145.9507)" style="fill-rule:evenodd;clip-rule:evenodd;fill:#E7B791;" cx="104.572" cy="35.961" rx="5.761" ry="3.687"/>
		
			<ellipse transform="matrix(0.2257 -0.9742 0.9742 0.2257 80.2543 173.4276)" style="fill-rule:evenodd;clip-rule:evenodd;fill:#E7B791;" cx="149.227" cy="36.227" rx="5.761" ry="3.687"/>
		<g>
			<path style="fill-rule:evenodd;clip-rule:evenodd;fill:#5E3A1D;" d="M131.941,15.568c1.808,1.073-10.961,6.007-5.793,6.636
				c12.197,1.483,18.82,17.713,26.883,13.926C152.391,23.222,140.885,13.707,131.941,15.568z"/>
			<path style="fill-rule:evenodd;clip-rule:evenodd;fill:#5E3A1D;" d="M145.957,20.826c-21.34,0.746-31.076,20.44-45.234,14.521
				C102.103,16.131,124.576,5.411,145.957,20.826z"/>
		</g>
	</g>
</g>
<g>
</g>
<g>
</g>
<g>
</g>
<g>
</g>
<g>
</g>
<g>
</g>
<g>
</g>
<g>
</g>
<g>
</g>
<g>
</g>
<g>
</g>
<g>
</g>
<g>
</g>
<g>
</g>
<g>
</g>
</svg>
